.........................................
.                                       .
.          pitic Presents               .
.                                       .
.........................................



Genre: Comedy | Drama | Romance
Language:English
IMDb:http://www.imdb.com/title/tt0376136/
Source:Stein Thanks Men!

Format : AVI
Format/Info : Audio Video Interleave
File size : 1.25 GiB
Duration : 1h 59mn
Overall bit rate : 1 489 Kbps

Video
ID : 0
Format : MPEG-4 Visual
Format profile : Advanced Simple@L5
Format settings, BVOP : 1
Format settings, QPel : No
Format settings, GMC : No warppoints
Format settings, Matrix : Default (H.263)
Codec ID : XVID
Codec ID/Hint : XviD
Duration : 1h 59mn
Bit rate : 1 032 Kbps
Width : 640 pixels
Height : 344 pixels
Display aspect ratio : 1.860
Frame rate : 23.976 fps
Color space : YUV
Chroma subsampling : 4:2:0
Bit depth : 8 bits
Scan type : Progressive
Compression mode : Lossy
Bits/(Pixel*Frame) : 0.195
Stream size : 885 MiB (69%)
Writing library : XviD 1.2.1 (UTC 2008-12-04)

Audio
ID : 1
Format : AC-3
Format/Info : Audio Coding 3
Mode extension : CM (complete main)
Codec ID : 2000
Duration : 1h 59mn
Bit rate mode : Constant
Bit rate : 448 Kbps
Channel(s) : 6 channels
Channel positions : Front: L C R, Side: L R, LFE
Sampling rate : 48.0 KHz
Bit depth : 16 bits
Compression mode : Lossy
Stream size : 384 MiB (30%)
Alignment : Aligned on interleaves
Interleave, duration : 42 ms (1.00 video frame)
Interleave, preload duration : 512 ms


Plot:
American journalist Paul Kemp takes on a freelance job in Puerto Rico for a local newspaper during the 1950s and struggles to find a balance between island culture and the expatriates who live there.

Screen Shots

[img]http://img46.imageshack.us/img46/6650/vlcsnap2012012710h02m07.png[/img]

[img]http://img834.imageshack.us/img834/6696/vlcsnap2012012710h02m21.png[/img]

[img]http://img27.imageshack.us/img27/9924/vlcsnap2012012710h03m26.png[/img]

